<svg xmlns="http://www.w3.org/2000/svg" width="1365.333" height="1365.333" version="1.0" viewBox="0 0 1024 1024"><path d="M0 512v512h1024V0H0zm428.2-336.1c3.3 3.4 3.8 4.7 3.8 8.6 0 5.9-2 9.6-6.4 12l-3.6 2v47.3l2.8.7c7.8 1.9 13.2 8.6 13.2 16.5 0 12.7-13.1 20.4-24.5 14.4-4.6-2.4-8.5-8.9-8.5-14.2 0-4.8 3.7-12.1 7-14 2.6-1.5 2.8-2.1 3.4-10.5.3-5 .6-15.9.6-24.3V199l-4-2c-13.2-6.7-6.9-27 8-25.6 3.6.3 5.1 1.1 8.2 4.5m188.4-2.4c6.6 4.3 8.4 13.9 3.8 19.5-1.5 1.7-3.9 3.7-5.5 4.6l-2.9 1.5v47.2l4.4 4.1c7.5 7 8.5 16.2 2.5 23.1-10.4 11.8-28.9 5.4-28.9-10 0-3 .8-6.5 1.9-8.5 2.1-4 7.4-8 10.6-8 1.3 0 2.6-.7 2.9-1.6s.6-11.6.6-23.9v-22.3l-3.4-2.1c-7-4.3-9-11.1-5.4-18 4-7.7 12.5-10.1 19.4-5.6m-157 11.1c3.4 2.3 5.7 8 5.1 12.8-.4 3.2-1.4 4.9-4.6 7.6l-4.1 3.6V392h-6V207.4l-3.6-1.3c-4.4-1.6-7.9-8.4-6.9-13.1 2-9 12.4-13.4 20.1-8.4m29.9-1.2c7.3 3.1 9.9 13.6 5 19.5-1.4 1.6-3.5 3.3-4.5 3.6-2 .6-2 2.2-2 93.1V392h-7v-92.4c0-90.9 0-92.5-2-93.1-1-.3-3.1-2-4.5-3.6-5-6-2.5-16.3 4.9-19.5 4-1.7 5.9-1.7 10.1 0m57.9 0c4.9 2 7.6 6 7.6 11.3 0 5.4-2.4 9.8-6.2 11.4l-2.8 1.1V392h-6v-92.5c0-84.1-.1-92.5-1.6-92.5-.9 0-3.1-1.5-5-3.4-2.8-2.8-3.4-4.1-3.4-7.8 0-5.4 3-10.4 7.3-12.3 4.1-1.8 6-1.8 10.1-.1m33.5.4c4 2.1 7.1 7.3 7.1 11.7 0 4.1-3.5 9.5-7 10.8l-3 1.1V392h-3c-2.6 0-3-.4-3.6-3.6-.4-2-.4-43.5-.2-92.1l.6-88.5-3.3-1.9c-8.7-5.2-7.9-17.3 1.6-22.1 4.3-2.3 6.6-2.3 10.8 0m-318.3 10.8c7.3 3.5 10.7 14.8 6.8 22.9l-1.7 3.6 4.9 5.2c2.7 2.9 10.7 11.2 17.9 18.4l12.9 13.3 2.8-2.7c1.9-1.8 4.1-2.7 7.5-3 15.1-1.3 20.4 19.1 6.6 25.8-7.9 3.8-16.4-.4-18.7-9.4-1.1-4.3-3.2-6.7-20.4-24L262 225.3l-5.3.5c-18.9 1.5-25-22.3-8.2-31.6 3-1.7 10.2-1.4 14.1.4m517.3-.1c1.6.8 4 2.8 5.5 4.5 9.6 11.5 1.1 28-13.9 26.8l-5.4-.5-19.5 19.6c-16.2 16.4-19.6 20.3-20.5 23.7-1.4 5.2-5.2 9.1-10.2 10.4-3.3.9-4.7.8-8.5-.9-3.6-1.6-4.9-2.9-6.5-6.7-2.7-5.9-1.9-10.3 2.5-15.1 2.8-3.1 4-3.7 8.7-4 4.8-.4 5.9-.1 9.4 2.4l4 2.9 17-17.4c9.3-9.6 17.1-18 17.3-18.8.2-.7-.4-2.4-1.4-3.8-4.5-7 0-20.2 8.1-23.6 3.2-1.4 10.4-1.1 13.4.5m-403.5 26.1c3.1 3.1 1.1 8.4-3.2 8.4-5 0-7.3-3.7-4.7-7.6 1.8-2.8 5.6-3.2 7.9-.8m141.6 86v85.5l-4.2-.3-4.3-.3-.3-85.3-.2-85.2h9zm-320.3-58.8c4.3 3.1 6.3 7.9 6.3 15.3v6.4l27.7 27.7 27.8 27.8h49.1l2.8-2.9c6.8-7.1 16.6-3.1 16.6 6.8 0 8.8-11.2 12.2-17 5.2l-2.5-3.1h-53l-28-28c-26.9-27-28.1-28-30.5-26.9-7.9 3.7-15.3 2.8-20.6-2.5-4.5-4.5-6.1-10.2-4.4-16 1.2-4.5 5.8-10.1 9.5-11.7 3.6-1.6 12.9-.5 16.2 1.9m652.4.7c4.3 4.2 5.9 7.7 5.9 13 0 12.9-12 20.4-23.9 15l-4.4-1.9-27.6 28.2-27.6 28.3-26.2-.1h-26.1l-3.5 3.5c-4.1 4.1-8.1 4.6-12.1 1.4-3.8-3-4.9-6.4-3.6-10.5 1.5-4.4 4.5-6.4 9.3-6.4 3 0 4.5.7 6.7 3l2.8 3h48.8l27.5-27.5 27.4-27.6v-6.7c0-7.8 2.1-12.4 7.6-16 2.9-2 4.4-2.3 9.6-2 5.3.3 6.8.9 9.4 3.3m-472.1 5c8.7 4.5 10.4 16.9 3.2 22.6l-2.7 2.1-.3 34.4-.3 34.4 8 8.4 8.1 8.5v7.8c0 8.1-.9 10.3-4.1 10.3-2.3 0-2.9-2-2.9-9.6V366l-7.5-7.1-7.5-7.2V279h-2.9c-6.3 0-12-8.4-10.7-15.5 1.7-8.8 11.8-14 19.6-10m283.6.1c4.6 2.2 7.4 7 7.4 12.9 0 4.2-.5 5.2-3.9 8.6-2.5 2.5-4.8 3.9-6.5 3.9H656v35.1c0 23.4-.4 35.7-1.1 37.1-.6 1.1-4.2 4.9-7.9 8.5l-6.9 6.5-.3 7.6c-.3 7.5-.4 7.7-2.8 7.7-2.5 0-2.5-.1-2.8-9.2l-.3-9.1 7.6-7.3 7.5-7.3v-70.2l-3-2.9c-6.9-6.6-5.3-17.7 3.2-21.8 4.2-2.1 8.1-2.1 12.4-.1m-242.6 67c3.8 2.3 6 6.4 6 11.4 0 3.4-.6 4.8-3.4 7.6-3 3-4 3.4-8.5 3.4-7.2 0-11.2-3.6-11.8-10.6-.5-4.4-.2-5.4 2.3-8.3 4.4-5.2 10.1-6.5 15.4-3.5m201.4-.1c4.1 2 6.6 6.3 6.6 11.5 0 3.4-.6 4.8-3.4 7.6-3 3-4 3.4-8.6 3.4-4.3 0-5.6-.5-8-2.8-5.6-5.7-4.5-15.1 2.2-19.2 3.9-2.4 6.9-2.5 11.2-.5m-422.6 6.2c7.8 5.8 9.2 16 3.2 23.4l-3.3 4.1 16.1 16 16 16.1 64.2.2 64.3.3 7.4 7.4c8.7 8.6 9.9 10.4 8.2 12.4-2.1 2.6-4.4 1.5-11.9-6.1l-7.4-7.5H226.5l-17.4-18c-17.1-17.8-17.4-18-21.6-18-16.8 0-20.4-25.3-4.5-31.9 3.7-1.6 11.7-.7 14.8 1.6m651 .1c1.6 1.2 4 4.3 5.2 6.8 5.1 10.5-1 21.9-12.4 23.1-4.6.6-5.2 1.1-21.8 18.4L802.6 393H673.8l-7.8 7.6c-8 7.7-11.2 9.1-11.8 4.9-.2-1.4 2.3-4.6 8-10.2l8.3-8.3 65-.5c35.7-.3 65.2-.9 65.5-1.3s7.3-7.5 15.4-15.9l14.9-15.2-3.1-3.1c-3.5-3.5-5.7-9.9-4.7-13.9 1-4.3 5.1-9.6 8.6-11.5 4.6-2.3 12.6-1.7 16.7 1.2m-533.3 19.8c7.2 3.4 8.6 14.3 2.5 19.6-3.9 3.6-11.3 3.9-15.3.7-3-2.3-5.2-8.6-4.4-12.1 2-8 9.8-11.7 17.2-8.2m406.5-.1c3.8 1.9 6 6.3 6 11.5s-1.3 7.6-5 9.5c-6 3.1-14 1.3-16.6-3.6-5.7-11.1 5-22.9 15.6-17.4m-296.8 12.6c4 4.8 3.9 11.6-.1 16.1-2.7 3-3.5 3.3-8.6 3.3s-5.9-.3-8.6-3.3c-2.2-2.4-2.9-4.2-2.9-7.3 0-8.4 5.1-13.3 13-12.5 3.6.3 5 1.1 7.2 3.7m191.2-3.1c1.4.5 3.5 2.4 4.6 4.2 4.2 6.9 1.3 15.7-5.9 17.9-5 1.5-8.6.6-12.2-3.1-2.5-2.4-2.9-3.7-2.9-8 0-4.6.4-5.6 3.4-8.6 3.6-3.6 7.8-4.4 13-2.4M193 379c1.1 1.1 2 2.9 2 3.9 0 4.1-5.9 6.8-8.8 3.9-2-2-1.4-6.5 1-8.2 2.9-2 3.4-2 5.8.4m649.8.2c2.8 2.8.2 8.8-3.8 8.8s-6.6-6-3.8-8.8c.7-.7 2.4-1.2 3.8-1.2s3.1.5 3.8 1.2m-213.2 20.7c5.5 2.5 10.1 8.3 11.4 14.5.8 3.5 1 34.1.8 99.6l-.3 94.5-2.8 4.7c-1.8 3.1-4.4 5.7-7.5 7.5l-4.7 2.8-109.5.3c-77 .2-111.1-.1-114.8-.9-6.3-1.3-11.7-5.5-14.3-11.4-1.8-3.8-1.9-9.3-1.9-100.3 0-105.3-.3-100.1 5.8-106.6 1.5-1.6 4.5-3.7 6.7-4.7 3.8-1.8 9.1-1.9 115.5-1.9 106.3 0 111.7.1 115.6 1.9M172.7 412c1.8 1 3.9 3.3 4.8 5l1.6 3h25.2l25.2-.1 2-3.2c1.1-1.8 3.7-4 5.8-5.1 5-2.4 9.8-1.5 14.4 2.8 3.1 2.8 3.7 4 4 8.7.3 4.2 0 6.1-1.7 8.7-2.1 3.4-7.2 6.2-11.2 6.2-4.2 0-10.5-3.9-12.3-7.5l-1.6-3.5H204c-21 0-25 .2-25 1.4 0 2.6-5.1 7.6-9.1 8.7-7.8 2.4-16-2.7-17.5-10.8-.5-2.9-.2-4.7 1.7-8.3 4-7.4 12-10.1 18.6-6m619.9.5c1.4.9 3.4 3.1 4.4 4.8l1.9 3.2 24.3-.3 24.3-.3 2.7-3.9c6.6-9.4 20.6-6.7 23.7 4.6 2.4 9-4 17.4-13.2 17.4-4.3 0-9.8-3.6-11.7-7.7l-1.5-3.3h-24.7c-20.8 0-24.8.2-24.8 1.4 0 2.6-5.1 7.6-9.1 8.7-7.8 2.4-15.8-2.6-17.3-10.6-1-5 2.6-12.2 7.4-14.7 4-2.2 9.7-1.9 13.6.7m-477.8 1.9c5.5 2.8 7.4 11.5 3.8 17-2.3 3.5-7.9 5.9-12.1 5.2-1.7-.4-4.4-1.9-5.9-3.5-9.3-9.7 2.2-24.9 14.2-18.7m34.1.1c3 1.5 6.1 6.9 6.1 10.5 0 4-3 8.8-6.7 10.5-4.8 2.3-9.9 1.4-13.8-2.5-2.5-2.6-3-3.8-3-8.1 0-4.6.4-5.4 3.7-8.5 4.2-3.8 8.8-4.5 13.7-1.9m343.7 1.9c3 3 3.4 4 3.4 8.6 0 4.3-.5 5.6-2.8 8-5.3 5.3-13.8 4.9-18.2-.8-1.4-1.7-2-4-2-7.4 0-4.3.4-5.4 3.4-8.4 2.9-2.9 4.1-3.4 8.1-3.4s5.2.5 8.1 3.4m32.3-1.9c3.8 1.9 6.5 7.7 5.7 12.3-1.1 7.4-10.3 12.3-16.6 9-3.2-1.7-7-7.4-7-10.5 0-3.8 3-9.2 5.9-10.8 3.4-1.9 8.5-1.9 12 0m-552.4 30.9c2.7 1.2 4.6 3.1 7 7.4.1.1 45 .2 99.9.2H379v7H180.1l-1.3 2.7c-4.6 9.4-17.2 8.9-22.1-1-2.3-4.5-1.6-8.5 2.1-12.8 4.1-4.9 7.9-5.9 13.7-3.5m698.2 3c6.3 6.9 3.6 17.7-5.2 20.6-5.7 1.9-12.8-1.6-14.8-7.3-.6-1.6-6.4-1.7-101.7-1.7H648v-7h201.5l2.8-3.6c3.6-4.4 6.1-5.5 11.2-4.9 3 .3 4.8 1.3 7.2 3.9m-699.4 25.7c1.2.6 2.9 2 3.8 3.1 1.5 1.9 3.6 1.9 102.7 1.8l101.2-.1v7.1H177.2l-1.1 3c-1.2 3.7-6.9 6.4-11.1 5.5-7.2-1.6-10.2-11.5-5-17 4-4.3 7.5-5.3 11.3-3.4m693.8.5c3.2 1.6 5.9 6.6 5.9 10.8 0 3.3-4.4 8.3-8 9.1-4 .9-9.5-1.9-11-5.6l-1.2-2.9H648v-7h102c90.7 0 102.1-.2 102.6-1.5.7-1.8 5.2-4.4 7.7-4.5 1 0 3.2.7 4.8 1.6m-485.8 35.6v4.3l-85.1.3-85.2.2v-2.2c0-1.3-.3-3.3-.6-4.5l-.6-2.3 85.3-.2c47-.2 85.6-.2 85.8-.1.2.2.4 2.2.4 4.5m440.5.4-.3 3.9-85.7.3-85.8.2v-9l85.3-.2c46.8-.2 85.6 0 86 .3.5.4.7 2.4.5 4.5m47.9 18.7c4.4 4 3.8 12.8-1.1 16.2-1.1.8-3.8 1.5-5.9 1.5-3 0-4.5-.7-6.7-3l-2.8-3H648v-7h203.5l1.7-3c2.8-4.9 10-5.8 14.5-1.7m-693 1.2 2.8 3.5H379v7H177.8l-3.5 3c-3.7 3.3-6.9 3.8-11.3 1.5-5.7-2.9-6.8-10.2-2.4-15.4 2.2-2.6 3.3-3.1 6.9-3.1 3.8 0 4.8.5 7.2 3.5m-.7 22.4c1.4 1 3.4 3.1 4.4 4.7l2 2.9 99.3-.3 99.3-.2v7H179.5l-1.3 3c-2.8 6.2-12.6 8.1-18 3.5-5.7-4.8-6.6-12.2-2-18 4.2-5.3 10.4-6.3 15.8-2.6m694-.1c6.8 4.9 7.5 13.9 1.5 19.9-2.7 2.7-4.1 3.3-7.5 3.3-5.1 0-9.6-2.5-11.3-6.2l-1.2-2.8H648v-7h200.8l2.3-3.6c3.8-6.3 11-7.8 16.9-3.6m-694.2 32.9c1.4 1.1 3.3 3.4 4.1 5.1l1.6 3.2h49.4l1.6-2.9c3.4-6.7 10.4-9.3 17.3-6.6 5.2 2.1 8.2 6.7 8.2 12.6 0 5.6-1.6 8.7-5.9 11.6-6.5 4.4-15.8 2-19.4-5l-1.9-3.7h-48.6l-2.1 3.5c-4.1 7-12.4 9.4-18.8 5.5-9.3-5.6-9.4-17.5-.2-23.8 4.1-2.8 10.6-2.6 14.7.5m619.1.1c1.4 1 3.2 3.3 4 5l1.6 3.2h48.3l2.1-3.5c6.1-10.3 19.4-9.8 24.2 1 4.9 11-4.6 22.1-16 18.6-4-1.1-9.1-6.1-9.1-8.7 0-1.2-4-1.4-24.5-1.4h-24.4l-1.5 2.7c-2.2 4.3-6 7.3-9.9 8-13.7 2.2-21.6-13.7-11.7-23.6 1.7-1.6 4-3.2 5.3-3.4 3.7-.8 9 .1 11.6 2.1m-476.3 2.3c8.1 7.6 3.2 20.9-7.6 20.9-6.7 0-12-5.5-12-12.3 0-3.1 3.8-8.8 7-10.5 3.4-1.8 9.7-.8 12.6 1.9m32.5-1.4c3.1 1.8 5.9 6.7 5.9 10.3s-2.8 8.5-5.9 10.3c-11.4 6.7-23.2-7.3-14.9-17.8 3.6-4.6 9.8-5.8 14.9-2.8m340.9-.2c7.6 4 8.1 16 .8 20.6-6.7 4.1-15.7.7-17.7-6.8-2.9-10.3 7.4-18.7 16.9-13.8m35.1.8c3.9 2.6 6.2 8.1 5.2 12.7-1.4 7.1-10.5 11-17.3 7.5-7.9-4.1-7.7-16.9.3-20.9 4.5-2.2 7.8-2 11.8.7m-350.7 29.4c.7 1.9-3.6 7.4-11 14.2l-5.6 5.1H230.4l-16.2 16.4c-8.9 9-16.2 16.8-16.2 17.3s1.1 2 2.5 3.3c3.2 3 4.9 8.2 4.2 13.1-2.3 17.5-27.8 17.7-31.7.3-2.3-9.9 5.8-20.4 15.8-20.4 2.9 0 3.1-.2 32.8-30.7l6.1-6.3h127.7l7.7-7.5c7.6-7.4 9.9-8.4 11.3-4.8m291.1 5.3 6.9 7h128.9l5.1 5.2c2.8 2.9 10.8 11.2 17.7 18.4 11.5 11.9 13 13.2 17 13.8 6.1 1 10.4 4 12.8 9 4.7 9.5.9 18.9-9.3 23.1-7.5 3.2-16.4-.5-19.7-8.1-2.6-5.9-1.8-11 2.6-16.8l3.3-4.3-16-16.7-16-16.6h-129l-7.2-7.3c-9.9-10.1-10.1-10.4-8.6-12.2 2.2-2.7 4.4-1.6 11.5 5.5M456 722.4v92.5l2.9 1.7c3.9 2.3 6.1 6.4 6.1 11.4 0 3.6-.6 4.8-3.9 8.1-3.2 3.3-4.5 3.9-8 3.9-8 0-13.1-4.9-13.1-12.5 0-5 2.3-8.9 6.5-10.9l3.5-1.7V630h6zm32 0v92.5l2.9 1.7c8 4.7 8.1 17.7.1 21.9-12.6 6.5-25.2-8.4-15.9-19 1.7-1.9 3.7-3.5 4.5-3.5 1.2 0 1.4-14.1 1.4-93v-93h7zm30-16.3v76l-4.2-.3-4.3-.3-.3-73.5c-.1-40.4 0-74.5.3-75.8.4-1.8 1.2-2.2 4.5-2.2h4zm28 16.4v92.4l2.9 1.6c4.4 2.2 6.1 5.3 6.1 11s-1.7 8.8-6 11c-6.4 3.3-14.3 1-17.6-5-3.3-6.1 0-15.1 6.4-17.6l2.2-.9V630h6zm32 .3.5 92.3 2.5 1.2c7.4 3.7 9.1 14.1 3.2 20-6.3 6.2-17.5 4.1-20.8-4-2.6-6.1.4-14.1 6.2-16.3l2.3-.9-.6-65.8c-.3-36.2-.2-77.9.2-92.6l.7-26.8 2.7.3 2.6.3zm-383.6-83.5c1.3 3.6-.2 6.1-3.8 6.5-3.5.4-5.6-1.3-5.6-4.7 0-3.6 1.9-5.3 5.5-4.9 2.2.2 3.2 1 3.9 3.1m648.4-2.1c.7.7 1.2 2.4 1.2 3.8s-.5 3.1-1.2 3.8-2.4 1.2-3.8 1.2-3.1-.5-3.8-1.2-1.2-2.4-1.2-3.8.5-3.1 1.2-3.8 2.4-1.2 3.8-1.2 3.1.5 3.8 1.2m-449.7 3.9c.6 1.3.9 5.9.7 11.9l-.3 9.9-7.8 7.3-7.7 7.3.1 34.5.2 34.5 3.3 3.7c4 4.5 5.2 9.5 3.2 14.6-4 10.5-20.3 11.1-25.1.9-2.2-4.6-2.1-7.2.3-12.3 2-4.1 6.6-7.4 10.4-7.4 1.4 0 1.6-3.7 1.6-35.8v-35.8l7.5-7.4 7.5-7.4v-8.4c0-8.6 1-12.2 3.5-12.2.8 0 1.9.9 2.6 2.1m245.3-1.5c1.3.5 1.6 2.3 1.6 9.6v9l7.8 8 7.7 8 .3 35.9c.2 31.3.5 35.9 1.8 35.9 2.8 0 7.5 3.1 9.4 6.3 1.3 2 2 5 2 8 0 4-.5 5.3-3.4 8.4-3 3.3-3.9 3.7-9.3 4.1-5.6.4-6.2.2-9.6-2.8-6.6-5.7-6.9-15.1-.7-20.4l3-2.5v-69.7l-7.5-7.4-7.5-7.4v-11.2c0-8.1.4-11.4 1.3-11.7.6-.3 1.3-.6 1.4-.6.1-.1.8.2 1.7.5M424 650.7c2.2 2 3.3 4 3.7 7 1.1 8.1-3.3 13.3-11.1 13.3-7.5 0-11.6-4.2-11.6-12.1 0-3.3.6-4.7 3.4-7.5 2.9-2.9 4.1-3.4 8-3.4 3.6 0 5.2.6 7.6 2.7m195.6.7c2.8 2.8 3.4 4.2 3.4 7.6 0 7.9-3.8 12-11.5 12s-11.5-4.1-11.5-12c0-3.4.6-4.8 3.4-7.6 2.9-2.9 4.1-3.4 8.1-3.4s5.2.5 8.1 3.4M316 657.5c4.2 2.2 6.3 6.8 5.7 12.3-.6 5.8-3.9 9.2-9.7 9.9-12 1.6-18.3-11.6-9.5-20.4 3.8-3.8 8.5-4.4 13.5-1.8m407.5.7c8.3 6.5 5.8 19.5-4 21.4-11.2 2.1-18.4-8.6-12.5-18.4 3.4-5.5 11.4-7 16.5-3m-304.6 26.3c3.2 1.6 6.1 6.9 6.1 11 0 6.2-5.5 11.5-12 11.5-11.7 0-16.5-15.7-6.8-22.4 2.8-2 9-2.1 12.7-.1m202.9.1c7.1 4.9 6.7 17-.8 20.9-6.8 3.5-15 .5-17.1-6.4-1.5-5.1-.5-8.7 3.6-12.8 2.7-2.7 4-3.3 7.7-3.3 2.4 0 5.4.7 6.6 1.6m95 5.1 2.3 2.5 25.7-.2 25.7-.1 28.7 29.1 28.7 29.2 4.6-2.2c11.6-5.6 23.5 2 23.5 15 0 6.9-2.6 11.4-8.5 14.7-4.9 2.8-9.6 2.9-15.1.4-6.1-2.8-8.9-7.9-8.9-16.3v-6.7L795.6 727l-28-28h-48.3l-1.2 2.4c-3.7 6.8-14.6 5.6-17.1-1.8-.9-2.9-.8-4.1.6-7.2 3.1-6.5 10.5-7.8 15.2-2.7m-391.4.4c1.8 2.1 2.6 4.2 2.6 6.9 0 8.7-11.2 12-17.1 5.1l-2.5-3.1h-49l-27.5 28.2-27.4 28.1v6.7c0 8.1-2.8 12.9-9.1 16-6.9 3.4-13.3 2.3-19-3.2-6.4-6.1-6.7-15.7-.7-22.9 5.1-6 12.5-7.4 20-3.8l4.4 2.1 28.7-29.1 28.7-29.2 26.1.1h26.1l2.3-2.5c3.6-3.8 10-3.5 13.4.6m-3.1 57.4c5.9 4.1 7.8 14.6 3.5 20-2.4 3.1-7.4 5.5-11.3 5.5-3 0-10.1-3.4-10.8-5.2-.4-1-.8-1-1.4-.2-.4.7-8.6 9.1-18.1 18.8-16.8 17.2-17.2 17.7-15.7 19.9 5.7 8.1 2.9 19.9-5.7 24.3-6.9 3.6-17.2 1-21.5-5.5-2.7-4-3.1-12.6-.9-16.9 3.3-6.3 10.1-9.8 17.2-8.8l4.5.6 19.2-19.6c16.2-16.6 19.5-20.4 20.8-24.5 1.9-5.8 3.4-7.8 7.4-9.6 3.4-1.5 9.7-1 12.8 1.2m106.3-.6c5.5 2.5 8.7 7.1 9.2 13.6.7 8.8-4.2 15.8-12.2 17.4l-3.1.7-.3 24.6-.2 24.5 2.9 1.3c8.3 3.4 10.1 16.5 3.1 22.4-9.2 7.7-23 1.4-23-10.4 0-4.8 3-10.6 6-11.5 4.9-1.6 5-2.1 5-27.5v-23.8l-3.5-2.1c-3.8-2.2-7.4-8.6-7.5-13.2 0-6.5 4.6-13.9 10.5-16.5 4.2-1.8 8.3-1.7 13.1.5m185.4.4c3 1.6 5.1 3.7 6.7 6.7 4.1 7.8 2.5 15.1-4.6 21.2l-4.1 3.5v49.1l2.3.6c4.2 1 7.9 6 8.5 11.4.6 6.8-1.6 10.8-7.5 13.4-8.1 3.6-15.7.5-18.9-7.7-1.6-4.3-1.6-4.7.1-9.1 1.2-3.2 2.8-5.2 5.6-7l3.9-2.4-.2-24.2-.3-24.2-3.5-.9c-8.2-2.1-12.5-8.4-11.8-17.2.5-6.5 3.7-11.1 9.2-13.6s9.4-2.4 14.6.4m104.6-.7c3.2 1.5 6.5 5.6 7.8 9.9.3 1.1 9.6 11.2 20.5 22.5l19.9 20.5h5.9c5 0 6.6.5 9.6 2.8 11.9 9.1 8 26.7-6.6 30.1-4 .9-10.2-1-14.1-4.5-5.8-5-6.6-14.9-1.8-21.6l2-2.9-18.1-18.3c-14.9-15-18.4-18.1-19.7-17.2-7.9 5.9-12.5 6.6-18.1 2.8-4.7-3.1-7.1-8.2-6.4-13.1 1.5-9.8 10.6-15 19.1-11m-84.2 57.7c1.3 3.6-.2 6.1-3.8 6.5-3.5.4-5.6-1.3-5.6-4.7 0-3.6 1.9-5.3 5.5-4.9 2.2.2 3.2 1 3.9 3.1"/><path d="M415.4 179.8c-.6.4-1.6 1.7-2.3 2.9-2.4 4.6 3.5 10.3 7.8 7.6 5.4-3.4 3.7-11.3-2.4-11.3-1.1 0-2.5.4-3.1.8m1.9 73.7c-6.2 2.7-7.9 10.8-3.3 16.3 4.2 5 12.6 4.5 16-1.1 3.8-6.2 1.9-12.6-4.6-15.3-4-1.7-4.1-1.7-8.1.1m8.6 6.7c1.8 4.9-2.4 9.2-6.8 6.9-2.3-1.3-2.9-5.9-.9-7.9 2.1-2.1 6.8-1.5 7.7 1m180.5-80.4c-1.3.8-3.4 4.6-3.4 6.1 0 1.9 3.9 5.1 6.3 5.1 5 0 7.6-7 3.9-10.3-1.9-1.8-4.9-2.2-6.8-.9m-7.3 76.3c-3.5 3.5-4 7.3-1.6 11.9 1.9 3.7 4.3 5 9.2 5 7.3 0 12.6-8.9 8.7-14.7-2.7-4.2-4.5-5.2-9.1-5.3-3.3 0-4.8.6-7.2 3.1m11.3 3.5c2.6 6.7-4.2 11.7-8 5.9-2.5-3.9-.6-7.5 4-7.5 2.2 0 3.6.6 4 1.6m-360.3-59.2c-9.1 5-5.2 19.5 5.2 19.6 3.1 0 4.5-.7 6.8-3.1 8.2-8.8-1.6-22.2-12-16.5m7.9 5.6c2.6 2.6 2.5 5.2-.1 7.6-1.9 1.7-2.3 1.7-4.7.3-3.6-2-4.1-6.1-1-8.3 2.9-2 3.4-2 5.8.4m51.6 54.1c-3.8 3-3.6 7.9.6 11.4 2.3 2 3.8 2.5 5.7 2 6-1.4 8.2-9.2 3.8-13.3-2.9-2.8-6.7-2.8-10.1-.1m7.8 2.2c2.1 1.6 1.8 5.5-.6 7-2.6 1.7-6.8-.7-6.8-3.7 0-3.9 4.1-5.7 7.4-3.3m450.4-61.7c-3.5 1.8-4.8 4.3-4.8 8.9s5.3 10.5 9.5 10.5c6 0 10.4-4.5 10.5-10.6 0-3.6-.5-4.7-3.5-7.3-3.9-3.4-7.4-3.9-11.7-1.5m6.7 4c2.4.9 3.7 5.1 2.5 7.5-1.2 2.2-5.9 2.6-7.8.7s-1.4-5.5 1-7.2c2.6-1.9 2.2-1.8 4.3-1m-67 55.9c-4.9 4.9-1.6 12.5 5.5 12.5 3 0 4.3-.6 5.9-2.6 2.8-3.5 2.6-6.5-.4-9.8-3.2-3.4-7.7-3.5-11-.1m8.1 1.3c1.8 1.2 2.4 4.2 1.4 6.3-1.2 2.2-5.9 2.6-7.8.7-3.7-3.7 2.1-10 6.4-7m-533.2-8.9c-4.4 2.7-6 7.7-4.1 12.4 4.6 11 19.7 8 19.7-4 0-8.6-8.1-13-15.6-8.4m9.1 4.7c2.3 2.4 1.5 6.6-1.7 8.3-2.4 1.4-2.8 1.4-4.7-.3-2.5-2.3-2.7-5.8-.5-8 2-2.1 4.8-2 6.9 0m642.6-5c-8.4 5.9-4.3 19.4 6 19.4 7.5 0 12.1-8.1 8.7-15.5-2.3-5-10.1-7.1-14.7-3.9m9.5 5.9c1.9 3 1.1 6.2-2.1 7.7-3.6 1.6-6.5-.5-6.5-4.7 0-5.5 5.6-7.5 8.6-3m-476 3.7c-.9 1.2-1.6 3-1.6 4 0 2.4 3.5 5.8 6 5.8s6-3.8 6-6.5c0-5.1-7.5-7.4-10.4-3.3m283.6-1c-2.3 3-2.3 5.6.2 8.4 2.1 2.5 2.7 2.7 5.2 1.9 5.1-1.8 6.2-7.9 2-10.7-1.8-1.2-6.3-.9-7.4.4m-465.8 69.7c-6.7 2.8-8.5 12.1-3.5 17.2 3.7 3.6 7 3.7 11.1.3 6.1-5.2 7.1-11.1 2.6-15.3-2.6-2.4-7.2-3.4-10.2-2.2m7.4 6.3c.7.7 1.2 2.4 1.2 3.8 0 5.3-5.7 6.9-8.6 2.5-1.5-2.3-1.5-2.7 0-5 1.8-2.7 5.4-3.3 7.4-1.3m642.6-6.2c-3 1.2-5.4 4.9-5.4 8.4s7.6 11.6 10.9 11.6c1.1 0 3.4-1.2 5.1-2.8 8.7-7.8.2-21.6-10.6-17.2m7.6 7.1c1.7 3 .4 6.8-2.4 7.5-3.2.8-6.6-1.2-6.6-3.8 0-5.1 6.8-7.9 9-3.7m-442.8 67.6c-1.9.9-4.4 3.2-5.8 5.2l-2.4 3.6v95.3c0 104.2-.3 99.3 5.9 104.5l3.3 2.7h111.9c123.4 0 115.3.4 120.1-6.2l2.3-3.3v-96.7c0-96.1 0-96.7-2.1-99.4-1.1-1.5-3.3-3.7-4.8-4.8-2.7-2.1-3.4-2.1-113.9-2.3-101.5-.2-111.5-.1-114.5 1.4m90.8 72.8v8.5h-19v-17h19zm32 0v8.5h-19v-17h19zm32 0v8.5h-19v-7.8c0-4.3.3-8.2.7-8.5.3-.4 4.6-.7 9.5-.7h8.8zM491 501v3h-9.4c-9.8 0-11.2-.6-10.1-4 .6-1.8 1.5-2 10.1-2h9.4zm32 0v3h-19v-6h19zm32 0v3h-19v-6h19zm-64 18v3h-19v-6h19zm32 0v3h-19v-6h19zm32 0v3h-19v-6h19zm-64 21.5v8.5h-19v-17h19zm32 0v8.5h-19v-17h19zm32 0v8.5h-19v-17h19zM491 563v3h-19v-6h19zm32 0v3h-19v-6h19zm32 0v3h-19v-6h19zM162 420c-1.1 1.1-2 2.8-2 3.8 0 2.9 2.9 6.2 5.6 6.2 2.9 0 6.4-3.2 6.4-6 0-2.6-3.4-6-6-6-1.1 0-2.9.9-4 2m76.1.6c-1.2 1.5-2.1 3-2.1 3.4 0 1.9 4.4 6 6.3 6 4.5 0 7.5-4.6 5.6-8.3-2.4-4.5-6.7-5-9.8-1.1M781 420c-2.4 2.4-2.5 4.8-.4 7.8 1.9 2.7 6.4 2.9 8.7.4 5.3-5.8-2.8-13.7-8.3-8.2m75.4.6c-3.3 4.9.9 10.7 6.3 8.8 6.2-2.1 4.8-11.4-1.7-11.4-2.1 0-3.5.8-4.6 2.6M161.7 592.8c-3.5 3.9-.9 10.2 4.1 10.2 2.8 0 6.2-3.4 6.2-6 0-2.7-3.5-6-6.3-6-1.3 0-3.1.8-4 1.8m77.1-.1c-2.6 3.1-2.8 5.1-.7 7.7 4.3 5.4 12.2 1.1 9.7-5.3-1.6-4.4-6.2-5.6-9-2.4m542.8-.2c-2.5 2.5-2.9 5.4-1.2 8 3.2 4.8 10.6 2.2 10.6-3.7 0-4.8-6.1-7.6-9.4-4.3m74.8 1.1c-3.3 4.9.9 10.7 6.3 8.8 6.2-2.1 4.8-11.4-1.7-11.4-2.1 0-3.5.8-4.6 2.6m-674.9 81.9c-4.1 4-2.7 13.7 2.4 16.5 5.4 2.9 13.3-.3 14.4-5.7 1.8-9.3-10.5-17.2-16.8-10.8m11.1 2.3c2 1.4 2.5 4.5.9 6.8-2 3.1-5.9 3.1-7.9.2s-2-3.4.4-5.8c2-2 4.7-2.5 6.6-1.2m641.3-.9c-4.3 4.2-4.9 7.3-2.4 12 2.6 5.2 9.6 5.7 14.7 1.2 2.8-2.5 3.3-3.6 3.3-7.6 0-3.9-.5-5.1-2.8-7.1-4.2-3.6-8.2-3.2-12.8 1.5m9.7 3.7c1.3 5-4.8 8.8-8.4 5.2-1.9-1.9-1.4-6.5.9-8.2 2.7-1.9 6.7-.3 7.5 3m-473.5 73.7c-3.3 1.7-4.5 3.9-3.7 7.1 1.4 5.6 9.8 5.6 11.2 0 1.2-4.9-3.4-9.2-7.5-7.1m281.1.9c-2.4 3.1-2.3 5.7.3 8.3s5.2 2.7 8.3.3c1.5-1.3 1.6-7 0-8.6s-7.3-1.5-8.6 0m184.3-1.9c-8 3.6-7.4 15.5.9 19.5 3.5 1.8 7.1.8 10.7-2.8 7.9-7.9-1.4-21.2-11.6-16.7m7.5 5.7c3.6 3.6 1.6 9-3.4 9-2.9 0-4.6-1.8-4.6-5 0-2.9.9-4.5 3-5.3 2.5-.9 2.9-.8 5 1.3m-659.5-5.6c-8.1 3.5-7.5 15.3 1 19.5 2.2 1.1 3.6 1.1 6.6.2 4.9-1.5 6.9-4.4 6.9-10.1 0-5-2.2-8.4-6.7-10.1-3.1-1.2-4.1-1.1-7.8.5m8.3 5.8c.7.7 1.2 2.4 1.2 3.8 0 3.2-1.7 5-4.6 5s-5.4-2.5-5.4-5.4 1.8-4.6 5-4.6c1.4 0 3.1.5 3.8 1.2m119.7-7.1c-5.1 2.9-6 8.5-2 12.4 3 3 6.4 3.2 9.9.4 6.6-5.2-.6-16.9-7.9-12.8m5.6 2.9c2.3 1.3 2.5 5.3.3 7.4-2 2-3.3 2-5.6-.1-2.2-2-2.3-4.6-.2-6.7 1.8-1.9 2.8-2 5.5-.6m-69.2 53.9c-3.3 3.4-3.8 7.5-1.4 12.1 4.7 9.1 18.5 5.3 18.5-5 0-5.8-4.2-10-10-10-3.3 0-4.8.6-7.1 2.9m11.1 4c1.6 3.1 1.2 4.9-1.5 6.7-2.3 1.5-2.7 1.5-5 0-2.7-1.8-3.3-5.4-1.3-7.4 1.9-1.9 6.6-1.5 7.8.7m159-60.6c-4.3 1.5-7.5 7.1-6.5 11.7 1.5 6.6 11 10.4 16.1 6.2 6.7-5.4 5.6-14.6-2.2-17.8-1.8-.8-3.5-1.4-3.6-1.3-.2 0-1.9.5-3.8 1.2m8 6.7c2.6 4.8-2.1 9.6-6.9 7-2.4-1.2-2.9-5.8-.9-7.8 1.9-1.9 6.6-1.5 7.8.8m-11.3 77.7c-4.5 5.1-.3 11.9 6.1 9.9 1-.4 2.4-1.8 3.1-3.2 2.6-5.8-4.9-11.4-9.2-6.7m187.7-84.3c-7.8 3.4-8.5 12.7-1.4 18.3 2.2 1.8 9.2 1.5 11.6-.5 6.5-5.2 5.3-14.7-2.1-17.8-4.1-1.7-4.2-1.7-8.1 0m7.4 5.8c.7.7 1.2 2.4 1.2 3.8 0 3.2-1.7 5-4.6 5-2.3 0-5.4-3.3-5.4-5.7 0-3.4 6.2-5.7 8.8-3.1m-3.4 77.6c-2.3 1.5-3.4 5-2.5 7.5 2.4 6.1 11.1 4.1 11.1-2.6 0-4.4-5-7.3-8.6-4.9m102.9-83.6c-4.7 2.3-5.3 10.3-1 13.3 4.9 3.5 12-.4 12-6.5 0-2.4-.7-4-2.7-5.7-2.9-2.5-4.9-2.8-8.3-1.1m6.7 3.8c1.1 1.1 2 2.4 2 3 0 1.2-3.7 5-4.8 5-1.4 0-5.2-3.1-5.2-4.3 0-2 3-5.7 4.6-5.7.8 0 2.3.9 3.4 2m49.9 52.9c-3.9 3.9-4 9.6-.3 14 2.2 2.6 3.3 3.1 7.1 3.1 3.6 0 5-.6 7.4-2.9 6.4-6.5 2-17.1-7.1-17.1-3.3 0-4.8.6-7.1 2.9M777 813c2.4 4.5-2.5 9.4-6.9 7.1-2.3-1.3-2.9-5.9-.9-7.9s6.6-1.5 7.8.8"/></svg>